<svg viewBox="0 0 22 19" fill="none" xmlns="http://www.w3.org/2000/svg">
	<path fill-rule="evenodd" clip-rule="evenodd" d="M0.5 6.5C0.5 3.32436 3.07436 0.75 6.25 0.75H16.25C19.4256 0.75 22 3.32436 22 6.5V12.5C22 15.6756 19.4256 18.25 16.25 18.25H6.25C3.07436 18.25 0.5 15.6756 0.5 12.5V6.5ZM6.25 2.25C3.90279 2.25 2 4.15279 2 6.5V12.5C2 14.8472 3.90279 16.75 6.25 16.75H16.25C18.5972 16.75 20.5 14.8472 20.5 12.5V6.5C20.5 4.15279 18.5972 2.25 16.25 2.25H6.25ZM4.65 6.05C4.89853 5.71863 5.36863 5.65147 5.7 5.9L10.5 9.5C10.9444 9.83333 11.5556 9.83333 12 9.5L16.8 5.9C17.1314 5.65147 17.6015 5.71863 17.85 6.05C18.0985 6.38137 18.0314 6.85147 17.7 7.1L12.9 10.7C11.9222 11.4333 10.5778 11.4333 9.6 10.7L4.8 7.1C4.46863 6.85147 4.40147 6.38137 4.65 6.05Z" fill="currentColor" fill-opacity="0.7"/>
</svg>
