<svg xmlns="http://www.w3.org/2000/svg" xmlns:xlink="http://www.w3.org/1999/xlink"><defs><style>
    .sprite-symbol-usage {display: none;}
    .sprite-symbol-usage:target {display: inline;}
  </style><symbol viewBox="0 0 22 19" fill="none" id="mail"><path fill-rule="evenodd" clip-rule="evenodd" d="M.5 6.5A5.75 5.75 0 0 1 6.25.75h10A5.75 5.75 0 0 1 22 6.5v6a5.75 5.75 0 0 1-5.75 5.75h-10A5.75 5.75 0 0 1 .5 12.5v-6Zm5.75-4.25A4.25 4.25 0 0 0 2 6.5v6a4.25 4.25 0 0 0 4.25 4.25h10a4.25 4.25 0 0 0 4.25-4.25v-6a4.25 4.25 0 0 0-4.25-4.25h-10Zm-1.6 3.8A.75.75 0 0 1 5.7 5.9l4.8 3.6a1.25 1.25 0 0 0 1.5 0l4.8-3.6a.75.75 0 1 1 .9 1.2l-4.8 3.6a2.75 2.75 0 0 1-3.3 0L4.8 7.1a.75.75 0 0 1-.15-1.05Z" fill="currentColor" fill-opacity=".7" /></symbol></defs><use id="mail-usage" xlink:href="#mail" class="sprite-symbol-usage" /></svg>